<mxfile host="app.diagrams.net" modified="2022-04-06T02:18:48.946Z" agent="5.0 (Macintosh; Intel Mac OS X 10_15_7) AppleWebKit/537.36 (KHTML, like Gecko) Chrome/100.0.4896.75 Safari/537.36" etag="_7LY4ubf_dDUWailliQP" version="16.6.1" type="github" pages="2">
  <diagram id="XUTN4BySlDO3wBlAgurX" name="Page-1">
    <mxGraphModel dx="638" dy="794" grid="1" gridSize="10" guides="1" tooltips="1" connect="1" arrows="1" fold="1" page="1" pageScale="1" pageWidth="850" pageHeight="1100" math="0" shadow="0">
      <root>
        <mxCell id="0" />
        <mxCell id="1" parent="0" />
        <mxCell id="Q1-PNs51LBV9nEy08p4e-7" style="edgeStyle=orthogonalEdgeStyle;rounded=0;orthogonalLoop=1;jettySize=auto;html=1;" parent="1" source="Q1-PNs51LBV9nEy08p4e-1" target="Q1-PNs51LBV9nEy08p4e-2" edge="1">
          <mxGeometry relative="1" as="geometry" />
        </mxCell>
        <mxCell id="Q1-PNs51LBV9nEy08p4e-1" value="integrador" style="rounded=1;whiteSpace=wrap;html=1;" parent="1" vertex="1">
          <mxGeometry x="180" y="240" width="120" height="60" as="geometry" />
        </mxCell>
        <mxCell id="Q1-PNs51LBV9nEy08p4e-6" style="edgeStyle=orthogonalEdgeStyle;rounded=0;orthogonalLoop=1;jettySize=auto;html=1;" parent="1" source="Q1-PNs51LBV9nEy08p4e-2" target="Q1-PNs51LBV9nEy08p4e-3" edge="1">
          <mxGeometry relative="1" as="geometry">
            <mxPoint x="740" y="220" as="targetPoint" />
          </mxGeometry>
        </mxCell>
        <mxCell id="Q1-PNs51LBV9nEy08p4e-2" value="adapter" style="rounded=1;whiteSpace=wrap;html=1;" parent="1" vertex="1">
          <mxGeometry x="500" y="330" width="120" height="60" as="geometry" />
        </mxCell>
        <mxCell id="Q1-PNs51LBV9nEy08p4e-3" value="clearsale" style="rounded=1;whiteSpace=wrap;html=1;" parent="1" vertex="1">
          <mxGeometry x="690" y="120" width="120" height="60" as="geometry" />
        </mxCell>
        <mxCell id="Q1-PNs51LBV9nEy08p4e-8" style="edgeStyle=orthogonalEdgeStyle;rounded=0;orthogonalLoop=1;jettySize=auto;html=1;" parent="1" source="Q1-PNs51LBV9nEy08p4e-4" target="Q1-PNs51LBV9nEy08p4e-1" edge="1">
          <mxGeometry relative="1" as="geometry" />
        </mxCell>
        <mxCell id="Q1-PNs51LBV9nEy08p4e-4" value="payload envio de pedidos" style="rounded=1;whiteSpace=wrap;html=1;" parent="1" vertex="1">
          <mxGeometry x="20" y="130" width="120" height="60" as="geometry" />
        </mxCell>
        <mxCell id="Q1-PNs51LBV9nEy08p4e-5" value="Itau Shop" style="text;html=1;strokeColor=none;fillColor=none;align=center;verticalAlign=middle;whiteSpace=wrap;rounded=0;" parent="1" vertex="1">
          <mxGeometry x="310" y="20" width="60" height="30" as="geometry" />
        </mxCell>
        <mxCell id="Q1-PNs51LBV9nEy08p4e-9" value="" style="sketch=0;points=[[0,0,0],[0.25,0,0],[0.5,0,0],[0.75,0,0],[1,0,0],[0,1,0],[0.25,1,0],[0.5,1,0],[0.75,1,0],[1,1,0],[0,0.25,0],[0,0.5,0],[0,0.75,0],[1,0.25,0],[1,0.5,0],[1,0.75,0]];outlineConnect=0;fontColor=#232F3E;gradientColor=#945DF2;gradientDirection=north;fillColor=#5A30B5;strokeColor=#ffffff;dashed=0;verticalLabelPosition=bottom;verticalAlign=top;align=center;html=1;fontSize=12;fontStyle=0;aspect=fixed;shape=mxgraph.aws4.resourceIcon;resIcon=mxgraph.aws4.managed_streaming_for_kafka;" parent="1" vertex="1">
          <mxGeometry x="230" y="130" width="28" height="28" as="geometry" />
        </mxCell>
        <mxCell id="Q1-PNs51LBV9nEy08p4e-10" value="" style="outlineConnect=0;dashed=0;verticalLabelPosition=bottom;verticalAlign=top;align=center;html=1;shape=mxgraph.aws3.http_protocol;fillColor=#5294CF;gradientColor=none;" parent="1" vertex="1">
          <mxGeometry x="730" y="247" width="50" height="46" as="geometry" />
        </mxCell>
        <mxCell id="Q1-PNs51LBV9nEy08p4e-11" value="MongoDB" style="shape=cylinder3;whiteSpace=wrap;html=1;boundedLbl=1;backgroundOutline=1;size=15;" parent="1" vertex="1">
          <mxGeometry x="210" y="340" width="60" height="80" as="geometry" />
        </mxCell>
        <mxCell id="Q1-PNs51LBV9nEy08p4e-12" value="" style="sketch=0;aspect=fixed;html=1;points=[];align=center;image;fontSize=12;image=img/lib/mscae/Cache_Redis_Product.svg;" parent="1" vertex="1">
          <mxGeometry x="570" y="148" width="50" height="42" as="geometry" />
        </mxCell>
        <mxCell id="Q1-PNs51LBV9nEy08p4e-13" value="" style="shape=image;html=1;verticalAlign=top;verticalLabelPosition=bottom;labelBackgroundColor=#ffffff;imageAspect=0;aspect=fixed;image=https://cdn1.iconfinder.com/data/icons/nuvola2/48x48/actions/kgpg_identity.png" parent="1" vertex="1">
          <mxGeometry x="590" y="199" width="48" height="48" as="geometry" />
        </mxCell>
        <mxCell id="Q1-PNs51LBV9nEy08p4e-14" value="" style="sketch=0;points=[[0,0,0],[0.25,0,0],[0.5,0,0],[0.75,0,0],[1,0,0],[0,1,0],[0.25,1,0],[0.5,1,0],[0.75,1,0],[1,1,0],[0,0.25,0],[0,0.5,0],[0,0.75,0],[1,0.25,0],[1,0.5,0],[1,0.75,0]];outlineConnect=0;fontColor=#232F3E;gradientColor=#945DF2;gradientDirection=north;fillColor=#5A30B5;strokeColor=#ffffff;dashed=0;verticalLabelPosition=bottom;verticalAlign=top;align=center;html=1;fontSize=12;fontStyle=0;aspect=fixed;shape=mxgraph.aws4.resourceIcon;resIcon=mxgraph.aws4.managed_streaming_for_kafka;" parent="1" vertex="1">
          <mxGeometry x="450" y="136" width="28" height="28" as="geometry" />
        </mxCell>
        <mxCell id="Q1-PNs51LBV9nEy08p4e-15" value="inteligencia propria" style="ellipse;whiteSpace=wrap;html=1;aspect=fixed;" parent="1" vertex="1">
          <mxGeometry x="375" y="220" width="100" height="100" as="geometry" />
        </mxCell>
      </root>
    </mxGraphModel>
  </diagram>
  <diagram id="btWPKoFkMljEYEXe_9gW" name="Kotlin">
    <mxGraphModel dx="638" dy="794" grid="1" gridSize="10" guides="1" tooltips="1" connect="1" arrows="1" fold="1" page="1" pageScale="1" pageWidth="850" pageHeight="1100" math="0" shadow="0">
      <root>
        <mxCell id="ndLA-aKq9DVxJ6Pj1Hj2-0" />
        <mxCell id="ndLA-aKq9DVxJ6Pj1Hj2-1" parent="ndLA-aKq9DVxJ6Pj1Hj2-0" />
        <mxCell id="vFjYC5-n_VrW79ViCQxg-0" value="without JVM" style="rounded=1;whiteSpace=wrap;html=1;" vertex="1" parent="ndLA-aKq9DVxJ6Pj1Hj2-1">
          <mxGeometry x="601" y="130" width="120" height="60" as="geometry" />
        </mxCell>
        <mxCell id="vFjYC5-n_VrW79ViCQxg-1" value="JVM" style="rounded=1;whiteSpace=wrap;html=1;" vertex="1" parent="ndLA-aKq9DVxJ6Pj1Hj2-1">
          <mxGeometry x="241" y="130" width="120" height="60" as="geometry" />
        </mxCell>
        <mxCell id="vFjYC5-n_VrW79ViCQxg-2" value="VMs JavScript" style="rounded=1;whiteSpace=wrap;html=1;" vertex="1" parent="ndLA-aKq9DVxJ6Pj1Hj2-1">
          <mxGeometry x="441" y="130" width="120" height="60" as="geometry" />
        </mxCell>
        <mxCell id="vFjYC5-n_VrW79ViCQxg-7" style="edgeStyle=orthogonalEdgeStyle;rounded=0;orthogonalLoop=1;jettySize=auto;html=1;" edge="1" parent="ndLA-aKq9DVxJ6Pj1Hj2-1" source="vFjYC5-n_VrW79ViCQxg-3" target="vFjYC5-n_VrW79ViCQxg-1">
          <mxGeometry relative="1" as="geometry">
            <Array as="points">
              <mxPoint x="161" y="160" />
            </Array>
          </mxGeometry>
        </mxCell>
        <mxCell id="vFjYC5-n_VrW79ViCQxg-3" value="Java" style="rounded=1;whiteSpace=wrap;html=1;" vertex="1" parent="ndLA-aKq9DVxJ6Pj1Hj2-1">
          <mxGeometry x="101" y="290" width="120" height="60" as="geometry" />
        </mxCell>
        <mxCell id="vFjYC5-n_VrW79ViCQxg-8" style="edgeStyle=orthogonalEdgeStyle;rounded=0;orthogonalLoop=1;jettySize=auto;html=1;entryX=1;entryY=0.5;entryDx=0;entryDy=0;" edge="1" parent="ndLA-aKq9DVxJ6Pj1Hj2-1" source="vFjYC5-n_VrW79ViCQxg-4" target="vFjYC5-n_VrW79ViCQxg-1">
          <mxGeometry relative="1" as="geometry">
            <Array as="points">
              <mxPoint x="401" y="240" />
              <mxPoint x="381" y="240" />
              <mxPoint x="381" y="160" />
            </Array>
          </mxGeometry>
        </mxCell>
        <mxCell id="vFjYC5-n_VrW79ViCQxg-9" style="edgeStyle=orthogonalEdgeStyle;rounded=0;orthogonalLoop=1;jettySize=auto;html=1;" edge="1" parent="ndLA-aKq9DVxJ6Pj1Hj2-1" source="vFjYC5-n_VrW79ViCQxg-4" target="vFjYC5-n_VrW79ViCQxg-2">
          <mxGeometry relative="1" as="geometry">
            <Array as="points">
              <mxPoint x="481" y="240" />
              <mxPoint x="481" y="240" />
            </Array>
          </mxGeometry>
        </mxCell>
        <mxCell id="vFjYC5-n_VrW79ViCQxg-10" style="edgeStyle=orthogonalEdgeStyle;rounded=0;orthogonalLoop=1;jettySize=auto;html=1;" edge="1" parent="ndLA-aKq9DVxJ6Pj1Hj2-1" source="vFjYC5-n_VrW79ViCQxg-4" target="vFjYC5-n_VrW79ViCQxg-0">
          <mxGeometry relative="1" as="geometry" />
        </mxCell>
        <mxCell id="vFjYC5-n_VrW79ViCQxg-4" value="Kotlin" style="rounded=1;whiteSpace=wrap;html=1;" vertex="1" parent="ndLA-aKq9DVxJ6Pj1Hj2-1">
          <mxGeometry x="381" y="290" width="120" height="60" as="geometry" />
        </mxCell>
        <mxCell id="vFjYC5-n_VrW79ViCQxg-5" value="" style="shape=flexArrow;endArrow=classic;startArrow=classic;html=1;rounded=0;width=8;endSize=5.32;entryX=0;entryY=0.5;entryDx=0;entryDy=0;exitX=1;exitY=0.5;exitDx=0;exitDy=0;startWidth=10;startSize=5.32;endWidth=10;" edge="1" parent="ndLA-aKq9DVxJ6Pj1Hj2-1" source="vFjYC5-n_VrW79ViCQxg-3" target="vFjYC5-n_VrW79ViCQxg-4">
          <mxGeometry width="100" height="100" relative="1" as="geometry">
            <mxPoint x="231" y="460" as="sourcePoint" />
            <mxPoint x="331" y="360" as="targetPoint" />
            <Array as="points">
              <mxPoint x="301" y="320" />
            </Array>
          </mxGeometry>
        </mxCell>
        <mxCell id="vFjYC5-n_VrW79ViCQxg-6" value="Interoperability" style="text;html=1;align=center;verticalAlign=middle;resizable=0;points=[];autosize=1;strokeColor=none;fillColor=none;" vertex="1" parent="ndLA-aKq9DVxJ6Pj1Hj2-1">
          <mxGeometry x="261" y="300" width="90" height="20" as="geometry" />
        </mxCell>
        <mxCell id="vFjYC5-n_VrW79ViCQxg-11" value="base" style="text;html=1;align=center;verticalAlign=middle;resizable=0;points=[];autosize=1;strokeColor=none;fillColor=none;" vertex="1" parent="ndLA-aKq9DVxJ6Pj1Hj2-1">
          <mxGeometry x="121" y="200" width="40" height="20" as="geometry" />
        </mxCell>
        <mxCell id="vFjYC5-n_VrW79ViCQxg-12" value="base" style="text;html=1;align=center;verticalAlign=middle;resizable=0;points=[];autosize=1;strokeColor=none;fillColor=none;" vertex="1" parent="ndLA-aKq9DVxJ6Pj1Hj2-1">
          <mxGeometry x="371" y="210" width="40" height="20" as="geometry" />
        </mxCell>
        <mxCell id="vFjYC5-n_VrW79ViCQxg-13" value="opcao" style="text;html=1;align=center;verticalAlign=middle;resizable=0;points=[];autosize=1;strokeColor=none;fillColor=none;" vertex="1" parent="ndLA-aKq9DVxJ6Pj1Hj2-1">
          <mxGeometry x="466" y="230" width="50" height="20" as="geometry" />
        </mxCell>
        <mxCell id="vFjYC5-n_VrW79ViCQxg-14" value="possibilidade" style="text;html=1;align=center;verticalAlign=middle;resizable=0;points=[];autosize=1;strokeColor=none;fillColor=none;" vertex="1" parent="ndLA-aKq9DVxJ6Pj1Hj2-1">
          <mxGeometry x="606" y="240" width="90" height="20" as="geometry" />
        </mxCell>
        <mxCell id="vFjYC5-n_VrW79ViCQxg-15" value="&lt;h1&gt;&lt;span&gt;Lang&lt;/span&gt;&lt;br&gt;&lt;/h1&gt;&lt;div&gt;&lt;span&gt;concebida em 2010&lt;/span&gt;&lt;/div&gt;" style="text;html=1;strokeColor=none;fillColor=none;spacing=5;spacingTop=-20;whiteSpace=wrap;overflow=hidden;rounded=0;" vertex="1" parent="ndLA-aKq9DVxJ6Pj1Hj2-1">
          <mxGeometry x="346" y="360" width="190" height="70" as="geometry" />
        </mxCell>
        <mxCell id="vFjYC5-n_VrW79ViCQxg-16" value="gradle/ maven/ ant" style="ellipse;whiteSpace=wrap;html=1;" vertex="1" parent="ndLA-aKq9DVxJ6Pj1Hj2-1">
          <mxGeometry x="396" y="530" width="120" height="80" as="geometry" />
        </mxCell>
        <mxCell id="vFjYC5-n_VrW79ViCQxg-17" value="&lt;div&gt;www.manning.com/books/kotlin-in-action.&lt;/div&gt;&lt;div&gt;&lt;br&gt;&lt;/div&gt;&lt;div&gt;Jemerov, Dmitry; Isakova, Svetlana. Kotlin em ação (p. 20). Novatec Editora. Kindle Edition.&amp;nbsp;&lt;/div&gt;" style="text;html=1;align=center;verticalAlign=middle;resizable=0;points=[];autosize=1;strokeColor=none;fillColor=none;" vertex="1" parent="ndLA-aKq9DVxJ6Pj1Hj2-1">
          <mxGeometry x="50" y="630" width="510" height="50" as="geometry" />
        </mxCell>
      </root>
    </mxGraphModel>
  </diagram>
</mxfile>
